<?xml version="1.0" encoding="UTF-8"?>
<svg version="1.1" xmlns="http://www.w3.org/2000/svg" width="512" height="512">
<path d="M0 0 C0.77537109 0.80824219 0.77537109 0.80824219 1.56640625 1.6328125 C0.08097036 6.6689392 -2.89168964 9.49795834 -6.53564453 13.07543945 C-7.1601651 13.7003981 -7.78468567 14.32535675 -8.4281311 14.96925354 C-10.48802314 17.02706054 -12.55832682 19.07404552 -14.62890625 21.12109375 C-16.06159708 22.54818764 -17.4936257 23.97594663 -18.92501831 25.40434265 C-22.68971845 29.15760185 -26.46334143 32.90176368 -30.2388916 36.644104 C-34.09177258 40.46626818 -37.93614933 44.29696486 -41.78125 48.12695312 C-49.32373095 55.63728313 -56.87566554 63.1380301 -64.43359375 70.6328125 C-67.57361639 69.1350883 -69.68880188 67.56772937 -72.18359375 65.1328125 C-86.75730896 51.96868614 -105.5836231 43.53997914 -124.43359375 38.6328125 C-125.65433594 38.31183594 -126.87507813 37.99085937 -128.1328125 37.66015625 C-147.45330532 33.46004912 -170.3024539 33.71052964 -189.43359375 38.6328125 C-190.10390625 38.79378418 -190.77421875 38.95475586 -191.46484375 39.12060547 C-226.83222575 47.70676327 -257.65876454 71.35892176 -276.65234375 102.171875 C-278.69724492 105.59773585 -280.58340392 109.09776895 -282.43359375 112.6328125 C-283.34238281 114.36917969 -283.34238281 114.36917969 -284.26953125 116.140625 C-301.4629771 150.28561758 -302.47621878 189.33531529 -291.22265625 225.45703125 C-284.78357384 244.80694575 -273.59723092 263.84604451 -258.93359375 278.1328125 C-256.43359375 280.6328125 -256.43359375 280.6328125 -256.43359375 282.6328125 C-255.86253906 282.8803125 -255.29148438 283.1278125 -254.703125 283.3828125 C-252.07835406 284.82846947 -250.27503149 286.54955666 -248.12109375 288.6328125 C-222.22425114 312.15828725 -186.37131005 323.71688995 -151.68603516 322.53955078 C-114.43878163 320.48012836 -80.29204019 308.10798261 -54.37109375 280.4453125 C-41.72334413 265.73210377 -33.2268759 247.59922326 -29.43359375 228.6328125 C-93.28859375 228.1378125 -93.28859375 228.1378125 -158.43359375 227.6328125 C-158.43359375 196.6128125 -158.43359375 165.5928125 -158.43359375 133.6328125 C-84.18359375 133.6328125 -9.93359375 133.6328125 66.56640625 133.6328125 C81.48487647 193.30669339 68.46028043 263.61258639 37.23339844 315.86328125 C34.52005295 320.24975202 31.61891583 324.47638165 28.56640625 328.6328125 C27.93532959 329.49495361 27.93532959 329.49495361 27.29150391 330.37451172 C-7.48035981 377.32502143 -58.89050499 405.55279122 -116.203125 414.56640625 C-165.96144163 421.95157453 -217.12441708 416.23651244 -262.43359375 393.6328125 C-263.67326904 393.01720459 -263.67326904 393.01720459 -264.93798828 392.38916016 C-274.86623362 387.41450201 -284.4195035 382.15141075 -293.43359375 375.6328125 C-294.04799316 375.19211426 -294.66239258 374.75141602 -295.29541016 374.29736328 C-303.5786351 368.32996556 -311.39784147 362.10441952 -318.8203125 355.09375 C-321.0771764 352.96845216 -323.37927779 350.94556614 -325.74609375 348.9453125 C-329.71571351 345.48816414 -333.05096846 341.65557604 -336.43359375 337.6328125 C-337.65175781 336.24642578 -337.65175781 336.24642578 -338.89453125 334.83203125 C-379.83417649 288.01398777 -399.45795596 226.45252936 -396.43359375 164.6328125 C-393.1353081 115.40678582 -375.72803779 67.96974632 -344.43359375 29.6328125 C-343.22896484 28.12267578 -343.22896484 28.12267578 -342 26.58203125 C-330.63083915 12.55742835 -317.68905575 -0.50908312 -303.08837891 -11.15673828 C-301.44115244 -12.36165843 -299.81788234 -13.59417932 -298.1953125 -14.83203125 C-288.20725142 -22.33381293 -277.41647972 -28.4503661 -266.43359375 -34.3671875 C-265.73459961 -34.74617188 -265.03560547 -35.12515625 -264.31542969 -35.515625 C-243.20382102 -46.75261931 -218.9090989 -53.4757198 -195.43359375 -57.3671875 C-194.70076172 -57.49029297 -193.96792969 -57.61339844 -193.21289062 -57.74023438 C-125.40980232 -68.68457241 -49.72110242 -48.36434681 0 0 Z " fill="#36A854" transform="translate(418.43359375,77.3671875)"/>
<path d="M0 0 C0.77537109 0.80824219 0.77537109 0.80824219 1.56640625 1.6328125 C0.08097036 6.6689392 -2.89168964 9.49795834 -6.53564453 13.07543945 C-7.1601651 13.7003981 -7.78468567 14.32535675 -8.4281311 14.96925354 C-10.48802314 17.02706054 -12.55832682 19.07404552 -14.62890625 21.12109375 C-16.06159708 22.54818764 -17.4936257 23.97594663 -18.92501831 25.40434265 C-22.68971845 29.15760185 -26.46334143 32.90176368 -30.2388916 36.644104 C-34.09177258 40.46626818 -37.93614933 44.29696486 -41.78125 48.12695312 C-49.32373095 55.63728313 -56.87566554 63.1380301 -64.43359375 70.6328125 C-67.57361639 69.1350883 -69.68880188 67.56772937 -72.18359375 65.1328125 C-86.75730896 51.96868614 -105.5836231 43.53997914 -124.43359375 38.6328125 C-125.65433594 38.31183594 -126.87507813 37.99085937 -128.1328125 37.66015625 C-147.45330532 33.46004912 -170.3024539 33.71052964 -189.43359375 38.6328125 C-190.10390625 38.79378418 -190.77421875 38.95475586 -191.46484375 39.12060547 C-226.83222575 47.70676327 -257.65876454 71.35892176 -276.65234375 102.171875 C-278.69724492 105.59773585 -280.58340392 109.09776895 -282.43359375 112.6328125 C-283.34238281 114.36917969 -283.34238281 114.36917969 -284.26953125 116.140625 C-301.42348195 150.20718294 -302.20499427 188.54588689 -291.43359375 224.6328125 C-291.87002197 224.9637793 -292.3064502 225.29474609 -292.75610352 225.63574219 C-300.54887991 231.55234785 -308.31692088 237.49040089 -315.93359375 243.6328125 C-321.84127241 248.3937803 -327.83449836 253.02996728 -333.87133789 257.62573242 C-340.73920213 262.85604931 -347.56749879 268.13513007 -354.35546875 273.46875 C-356.80684783 275.38964065 -359.27673255 277.25562564 -361.82421875 279.046875 C-366.4717349 282.02694524 -366.4717349 282.02694524 -368.8046875 286.66796875 C-368.60811169 288.8536538 -368.60811169 288.8536538 -367.43359375 291.6328125 C-389.9237693 270.95109244 -395.22273523 217.87131567 -396.60205078 189.12158203 C-398.51336647 131.53420021 -381.04386919 74.4818504 -344.43359375 29.6328125 C-343.22896484 28.12267578 -343.22896484 28.12267578 -342 26.58203125 C-330.63083915 12.55742835 -317.68905575 -0.50908312 -303.08837891 -11.15673828 C-301.44115244 -12.36165843 -299.81788234 -13.59417932 -298.1953125 -14.83203125 C-288.20725142 -22.33381293 -277.41647972 -28.4503661 -266.43359375 -34.3671875 C-265.73459961 -34.74617188 -265.03560547 -35.12515625 -264.31542969 -35.515625 C-243.20382102 -46.75261931 -218.9090989 -53.4757198 -195.43359375 -57.3671875 C-194.70076172 -57.49029297 -193.96792969 -57.61339844 -193.21289062 -57.74023438 C-125.40980232 -68.68457241 -49.72110242 -48.36434681 0 0 Z " fill="#EA4437" transform="translate(418.43359375,77.3671875)"/>
<path d="M0 0 C74.25 0 148.5 0 225 0 C239.91847022 59.67388089 226.89387418 129.97977389 195.66699219 182.23046875 C192.9536467 186.61693952 190.05250958 190.84356915 187 195 C186.36892334 195.86214111 186.36892334 195.86214111 185.72509766 196.74169922 C177.6926142 207.58751397 168.56236918 217.48913689 159 227 C157 226 157 226 154.8125 223.79296875 C151.70704397 220.70907839 148.43130919 218.01974705 145 215.3125 C144.34209473 214.78994629 143.68418945 214.26739258 143.00634766 213.72900391 C136.72276212 208.75141257 130.3700373 203.86611008 124 199 C96.23242751 177.70563231 96.23242751 177.70563231 83 167 C86.0927331 163.85009993 89.2600519 160.84319276 92.55371094 157.90527344 C112.07641519 140.36634666 122.67225005 120.31099979 129 95 C86.43 94.67 43.86 94.34 0 94 C0 62.98 0 31.96 0 0 Z " fill="#4386F4" transform="translate(260,211)"/>
<path d="M0 0 C0.66902344 0.69609375 1.33804688 1.3921875 2.02734375 2.109375 C5.33303053 5.41157844 8.92604848 8.32234835 12.5625 11.25 C13.2735791 11.82500244 13.9846582 12.40000488 14.71728516 12.99243164 C19.65389534 16.96516396 24.67312409 20.80692162 29.765625 24.578125 C33.76556456 27.55399892 37.69282214 30.6229917 41.625 33.6875 C42.38401611 34.27845459 43.14303223 34.86940918 43.92504883 35.47827148 C47.90288019 38.57788575 51.87427659 41.68549318 55.83984375 44.80078125 C56.63116699 45.42057861 57.42249023 46.04037598 58.23779297 46.67895508 C59.7350621 47.85183162 61.23034137 49.0272551 62.72314453 50.20581055 C67.07956568 53.61463134 71.52702613 56.70756054 76.23022461 59.62304688 C78 61 78 61 79 64 C78.6862793 65.86254883 78.6862793 65.86254883 78.07421875 67.95703125 C77.74587036 69.11960449 77.74587036 69.11960449 77.41088867 70.30566406 C77.17217041 71.13291992 76.93345215 71.96017578 76.6875 72.8125 C69.17933205 100.36569424 70.87889933 127.79225157 79 155 C78.56357178 155.3309668 78.12714355 155.66193359 77.67749023 156.00292969 C69.88471384 161.91953535 62.11667287 167.85758839 54.5 174 C48.59232134 178.7609678 42.59909539 183.39715478 36.56225586 187.99291992 C29.69439162 193.22323681 22.86609496 198.50231757 16.078125 203.8359375 C13.62674592 205.75682815 11.1568612 207.62281314 8.609375 209.4140625 C3.96185885 212.39413274 3.96185885 212.39413274 1.62890625 217.03515625 C1.82548206 219.2208413 1.82548206 219.2208413 3 222 C-19.49017555 201.31827994 -24.78914148 148.23850317 -26.16845703 119.48876953 C-27.54793286 77.92556679 -19.08120093 37.03467131 0 0 Z " fill="#FABC07" transform="translate(48,147)"/>
<path d="M0 0 C0.66 0.33 1.32 0.66 2 1 C-8.23 11.23 -18.46 21.46 -29 32 C-29.66 31.67 -30.32 31.34 -31 31 C-25.04785325 24.36760791 -18.97951518 17.87471967 -12.6875 11.5625 C-12.11370605 10.98419434 -11.53991211 10.40588867 -10.94873047 9.81005859 C-7.45093527 6.32441203 -3.83862592 3.106906 0 0 Z " fill="#EF6D62" transform="translate(109,71)"/>
</svg>
