<?xml version="1.0" encoding="UTF-8"?>
<svg version="1.1" xmlns="http://www.w3.org/2000/svg" width="32" height="32">
<path d="M0 0 C4.12974965 2.06487482 6.29527061 3.7458555 8 8 C8.7121481 13.01815989 8.52912753 16.94174495 6.25 21.5 C3.55891188 24.49009791 1.62679122 25.76913524 -2.3671875 26.3359375 C-8.08522757 26.42500354 -11.56237048 25.99386657 -16 22 C-18.73957509 17.559999 -18.65531007 13.06666568 -18 8 C-13.98902931 -0.02194138 -8.43057162 -1.09038939 0 0 Z M-14 7 C-15.60577639 10.21155278 -15.47382856 13.516359 -15 17 C-13.54366876 20.02938694 -13.54366876 20.02938694 -11 22 C-7.86136296 22.88593998 -7.86136296 22.88593998 -5 23 C-5 21.35 -5 19.7 -5 18 C-6.32 17.67 -7.64 17.34 -9 17 C-9.042721 15.33388095 -9.04063832 13.66617115 -9 12 C-7.03177114 10.03177114 -3.65191291 10.33751619 -1 10 C-3.1385485 7.8614515 -4.13275314 7.57344937 -7 7 C-7 6.01 -7 5.02 -7 4 C-6.01 3.67 -5.02 3.34 -4 3 C-8.6810106 2.46502736 -10.63175201 3.8188769 -14 7 Z M4 11 C4 11.66 4 12.32 4 13 C2.68 13 1.36 13 0 13 C-0.33 15.97 -0.66 18.94 -1 22 C3.12403473 20.35143175 3.12403473 20.35143175 5 17 C5.16699232 13.87478167 5.16699232 13.87478167 5 11 C4.67 11 4.34 11 4 11 Z " fill="#000000" transform="translate(21,3)"/>
</svg>
